{"title":"[ShepardTDS] D-Frag! Dual Audio [720p 8-bit x265 HEVC] 1-12+OVA","uid":12732676,"size":2690302074,"categoryP":"video","categoryS":"tv_shows","magnet":"?xt=urn:btih:f95222e37f9082c8a06553b09998e8c5a0025696&amp;dn=%5BShepardTDS%5D+D-Frag%21+Dual+Audio+%5B720p+8-bit+x265+HEVC%5D+1-12%2BOVA+&amp;tr=udp%3A%2F%2Ftracker.leechers-paradise.org%3A6969&amp;tr=udp%3A%2F%2Fzer0day.ch%3A1337&amp;tr=udp%3A%2F%2Fopen.demonii.com%3A1337&amp;tr=udp%3A%2F%2Ftracker.coppersurfer.tk%3A6969&amp;tr=udp%3A%2F%2Fexodus.desync.com%3A6969","seeders":1,"leechers":0,"uploader":"ShepardTDS","files":15,"time":1447144585,"description":"Constant Quality encoding.\r\nVariable Bit rates\r\nED and OP included\r\nOVA is NOT 720. It is 576 and hardsubbed. Lame i know :-/\r\nBlu-Ray Source\r\n\r\n\r\nGeneral\r\n\r\nFormat : Matroska\r\nFile size : 178 MiB-218 MiB\r\nDuration : 23mn 51s\r\nOverall bit rate : 1 043 Kbps-1,278 Kbps\r\nEncoded date : UTC 2015-11-04 21:09:36\r\nWriting application : mkvmerge v7.7.0 ('Six Voices') 32bit built on Feb 28 2015 23:23:00\r\nWriting library : libebml v1.3.1 + libmatroska v1.4.2\r\n\r\nVideo\r\nID : 1\r\nFormat : V_MPEGH/ISO/HEVC\r\nCodec ID : V_MPEGH/ISO/HEVC\r\nDuration : 23mn 51s\r\nBit rate : 638 Kbps-869 Kbps\r\nWidth : 1 280 pixels\r\nHeight : 720 pixels\r\nDisplay aspect ratio : 16:9\r\nFrame rate : 23.976 fps\r\nBits/(Pixel*Frame) : 0.029\r\nStream size : 109 MiB (61%)\r\n\r\nAudio #1\r\nID : 2\r\nFormat : AC-3\r\nFormat/Info : Audio Coding 3\r\nMode extension : CM (complete main)\r\nCodec ID : A_AC3\r\nDuration : 23mn 51s\r\nBit rate mode : Constant\r\nBit rate : 192 Kbps\r\nChannel(s) : 6 channels\r\nChannel positions : Front: L C R, Side: L R, LFE\r\nSampling rate : 48.0 KHz\r\nBit depth : 16 bits\r\nCompression mode : Lossy\r\nStream size : 32.8 MiB (18%)\r\nLanguage : English\r\n\r\nAudio #2\r\nID : 3\r\nFormat : AC-3\r\nFormat/Info : Audio Coding 3\r\nMode extension : CM (complete main)\r\nCodec ID : A_AC3\r\nDuration : 23mn 51s\r\nBit rate mode : Constant\r\nBit rate : 192 Kbps\r\nChannel(s) : 2 channels\r\nChannel positions : Front: L R\r\nSampling rate : 48.0 KHz\r\nBit depth : 16 bits\r\nCompression mode : Lossy\r\nStream size : 32.8 MiB (18%)\r\nLanguage : Japanese\r\n\r\nText #1\r\nID : 4\r\nFormat : ASS\r\nCodec ID : S_TEXT/ASS\r\nCodec ID/Info : Advanced Sub Station Alpha\r\nCompression mode : Lossless\r\nTitle : English Signs/Songs\r\nLanguage : English\r\n\r\nText #2\r\nID : 5\r\nFormat : ASS\r\nCodec ID : S_TEXT/ASS\r\nCodec ID/Info : Advanced Sub Station Alpha\r\nCompression mode : Lossless\r\nTitle : English Subtitles\r\nLanguage : English\r\n\r\nMenu\r\n00:00:00.000 : en:Prologue\r\n00:00:30.030 : en:Opening\r\n00:02:00.079 : en:Part A\r\n00:08:49.112 : en:Part B\r\n00:20:11.127 : en:Ending\r\n00:21:41.092 : en:Conclusion","torrent":{"xt":"urn:btih:f95222e37f9082c8a06553b09998e8c5a0025696","amp;dn":"%5BShepardTDS%5D+D-Frag%21+Dual+Audio+%5B720p+8-bit+x265+HEVC%5D+1-12%2BOVA+","amp;tr":["udp%3A%2F%2Ftracker.leechers-paradise.org%3A6969","udp%3A%2F%2Fzer0day.ch%3A1337","udp%3A%2F%2Fopen.demonii.com%3A1337","udp%3A%2F%2Ftracker.coppersurfer.tk%3A6969","udp%3A%2F%2Fexodus.desync.com%3A6969"],"infoHash":"f95222e37f9082c8a06553b09998e8c5a0025696","infoHashBuffer":{"type":"Buffer","data":[249,82,34,227,127,144,130,200,160,101,83,176,153,152,232,197,160,2,86,150]},"announce":[],"urlList":[]}}